# xmcd
#
# Track frame offsets:
# 150
# 16329
# 30264
# 41432
# 56202
# 69319
# 82226
# 93938
# 106504
# 118817
# 133415
# 150319
# 161206
# 174459
# 186442
#
# Disc length: 2712 seconds
#
#
# Revision: 0
# Processed by: cddbd v1.5.2PL0 Copyright (c) Steve Scherf et al.
# Submitted via: FreeRIP 2.945 
#
DISCID=c20a960f
DTITLE=Roger e Robson - Sistema Batidão
DYEAR=2006
DGENRE=Sertanejo
TTITLE0=Mulher Esperta
TTITLE1=Eternamente Seu
TTITLE2=Pesque-Pague do Tonhão
TTITLE3=Pode Vim
TTITLE4=Apaixonado, adolescente
TTITLE5=Seu Cuca
TTITLE6=Apaixonado eu tô
TTITLE7=Velho Ditado
TTITLE8=A pegada é forte
TTITLE9=Meu Coração Chorou
TTITLE10=Gandaia
TTITLE11=Pagode Dito e Feito
TTITLE12=Seu Cuca (Ao Vivo)
TTITLE13=Pesque-Pague do Tonhão (Ao Vivo)
TTITLE14=Mulher Esperta (Ao Vivo)
EXTD=
EXTT0=
EXTT1=
EXTT2=
EXTT3=
EXTT4=
EXTT5=
EXTT6=
EXTT7=
EXTT8=
EXTT9=
EXTT10=
EXTT11=
EXTT12=
EXTT13=
EXTT14=
PLAYORDER=
